<?xml version="1.0" encoding="UTF-8"?>
<!DOCTYPE svg PUBLIC "-//W3C//DTD SVG 1.1//EN" "http://www.w3.org/Graphics/SVG/1.1/DTD/svg11.dtd">
<!-- Creator: CorelDRAW X7 -->
<svg xmlns="http://www.w3.org/2000/svg" xml:space="preserve" width="489mm" height="100mm" version="1.1" style="shape-rendering:geometricPrecision; text-rendering:geometricPrecision; image-rendering:optimizeQuality; fill-rule:evenodd; clip-rule:evenodd"
viewBox="0 0 48900 10000"
 xmlns:xlink="http://www.w3.org/1999/xlink">
 <defs>
  <style type="text/css">
   <![CDATA[
    .fil0 {fill:#00A0E2;fill-rule:nonzero}
    .fil1 {fill:#0169A3;fill-rule:nonzero}
    .fil4 {fill:#771F2D;fill-rule:nonzero}
    .fil2 {fill:#898C8E;fill-rule:nonzero}
    .fil3 {fill:#B62667;fill-rule:nonzero}
   ]]>
  </style>
 </defs>
 <g id="Layer_x0020_1">
  <metadata id="CorelCorpID_0Corel-Layer"/>
  <g id="_766259824">
   <path class="fil0" d="M803 6164c0,-2181 1454,-3100 2967,-3100 1513,0 2968,919 2968,3100 0,2181 -1455,3099 -2968,3099 -1513,0 -2967,-918 -2967,-3099zm-771 0c0,2544 1782,3786 3738,3786 1956,0 3738,-1242 3738,-3786 0,-2545 -1782,-3787 -3738,-3787 -1956,0 -3738,1242 -3738,3787z"/>
   <path class="fil0" d="M8593 9692l678 0 -9 -3374 1646 0c1467,0 2273,-659 2273,-1906 0,-1384 -963,-1888 -1970,-1888l-2628 0 10 7168zm669 -6545l1857 0c779,0 1329,285 1329,1265 0,770 -331,1283 -1467,1283l-1719 0 0 -2548z"/>
   <polygon class="fil0" points="14112,9768 18750,9768 18740,9082 14849,9082 14849,6376 18478,6376 18478,5689 14849,5689 14849,3245 18659,3245 18659,2559 14102,2559 "/>
   <polygon class="fil0" points="20011,9768 20674,9768 20665,3609 20683,3609 25189,9768 25959,9768 25950,2559 25287,2559 25287,8718 25269,8718 20799,2559 20002,2559 "/>
   <g>
    <g>
     <path class="fil0" d="M42580 8342l993 0 0 1605 -1717 0 0 -1605 -1203 0 0 -313 2522 -3116 -2522 -3108 -154 -188 154 0 0 -1567 2920 0 0 1567 -895 0 895 1100 693 852 694 -856 886 -1096 -886 0 0 -1567 3908 0 0 1567 -839 0 -2675 3296 2782 3429 732 0c0,522 0,1083 0,1605l-3908 0 0 -1605 997 0 -997 -1229 -694 -856 -693 856 -993 1229z"/>
     <polygon class="fil1" points="41856,8342 41856,9947 40653,9947 39643,9947 39643,8749 39643,8342 39968,8342 40397,8342 40653,8029 40653,8342 "/>
     <polygon class="fil1" points="40499,1617 39643,1617 39643,50 40653,50 40653,1617 "/>
     <path class="fil2" d="M39074 1617l-1045 0 0 -1567 1045 0 569 0 0 1567 856 0 154 188 0 4307 0 12 0 1905 -256 313 -429 0 -325 0 0 407 0 1198 -569 0 0 -693c-608,436 -1353,693 -2171,693 -1117,0 -2123,-479 -2825,-1246 287,-321 518,-689 681,-1095l-1387 0c-60,-146 -112,-291 -154,-441 -43,-142 -73,-283 -99,-433l266 0 1352 0c43,150 99,291 172,428 376,707 1121,1190 1977,1190 1233,0 2179,-997 2188,-2226l0 -12c0,-1238 -951,-2239 -2188,-2239 -856,0 -1601,483 -1977,1194 -159,-586 -446,-1113 -831,-1545 702,-766 1708,-1246 2825,-1246 818,0 1563,257 2171,694l0 -1353z"/>
     <path class="fil3" d="M35046 6112c0,214 -17,419 -47,620l-262 0c-60,-197 -90,-406 -90,-620 0,-227 35,-450 99,-655 43,-137 98,-270 163,-390 34,124 64,257 85,390 35,209 52,432 52,655z"/>
     <path class="fil4" d="M33372 7606l1387 0c-163,406 -394,774 -681,1095 -295,-321 -535,-689 -706,-1095z"/>
     <path class="fil4" d="M34746 5457c-64,205 -99,428 -99,655 0,214 30,423 90,620l-1352 0 -266 0c-30,-201 -47,-406 -47,-620 0,-223 17,-446 56,-655l248 0c-43,-142 -94,-274 -158,-398 162,-583 462,-1105 860,-1537 385,432 672,959 831,1545 -65,120 -120,253 -163,390z"/>
     <path class="fil3" d="M34078 8701c-676,767 -1661,1246 -2778,1246 -1905,0 -3489,-1391 -3784,-3215 -35,-201 -52,-406 -52,-620 0,-223 22,-446 56,-655 313,-1807 1884,-3181 3780,-3181 1117,0 2102,480 2778,1246 -398,432 -698,954 -860,1537 -364,-707 -1083,-1186 -1935,-1186 -1010,0 -1862,668 -2141,1584l3986 0c-39,209 -56,432 -56,655 0,214 17,419 47,620l-3989 0c269,934 1130,1618 2153,1618 663,0 1241,-286 1639,-744l450 0c171,406 411,774 706,1095z"/>
     <path class="fil2" d="M33376 5457l-248 0c21,-137 51,-270 90,-398 64,124 115,256 158,398z"/>
    </g>
   </g>
  </g>
 </g>
</svg>
