<?xml version="1.0" encoding="UTF-8" standalone="no"?>
<!DOCTYPE svg PUBLIC "-//W3C//DTD SVG 1.1//EN" "http://www.w3.org/Graphics/SVG/1.1/DTD/svg11.dtd">
<svg width="100%" height="100%" viewBox="0 0 1100 321" version="1.1" xmlns="http://www.w3.org/2000/svg" xmlns:xlink="http://www.w3.org/1999/xlink" xml:space="preserve" xmlns:serif="http://www.serif.com/" style="fill-rule:evenodd;clip-rule:evenodd;stroke-linejoin:round;stroke-miterlimit:2;">
    <g transform="matrix(4.16667,0,0,4.16667,0,0)">
        <path d="M9.198,9.265L0,53.2L175.31,53.2L184.509,9.265L9.198,9.265Z" style="fill:rgb(211,51,40);fill-rule:nonzero;"/>
        <path d="M203.926,13.463L206.531,0.997L130.022,0.997L117.475,60.928L181.444,60.928L177.922,77L239.197,77L252.712,13.463L203.926,13.463Z" style="fill:rgb(6,38,42);fill-rule:nonzero;"/>
        <path d="M153.696,34.283C153.716,34.188 153.73,34.009 153.74,33.747C153.75,33.488 153.755,33.231 153.755,32.982C153.755,31.959 153.606,30.993 153.307,30.076C153.009,29.161 152.561,28.356 151.962,27.662C151.365,26.967 150.622,26.419 149.736,26.013C148.848,25.61 147.818,25.406 146.642,25.406C145.446,25.406 144.328,25.619 143.289,26.042C142.247,26.466 141.302,27.07 140.456,27.85C139.607,28.63 138.876,29.565 138.259,30.653C137.643,31.741 137.151,32.952 136.784,34.28L153.696,34.28L153.696,34.283ZM143.551,53.277C141.816,53.277 140.177,52.992 138.636,52.423C137.095,51.856 135.75,51.017 134.602,49.908C133.455,48.8 132.551,47.438 131.884,45.819C131.219,44.199 130.886,42.34 130.886,40.239C130.886,37.367 131.286,34.75 132.086,32.39C132.885,30.029 133.999,28.007 135.425,26.319C136.85,24.633 138.56,23.327 140.556,22.403C142.55,21.478 144.734,21.016 147.104,21.016C148.704,21.016 150.22,21.295 151.659,21.855C153.094,22.415 154.351,23.227 155.43,24.299C156.509,25.367 157.368,26.683 158.004,28.244C158.639,29.804 158.958,31.597 158.958,33.62C158.958,33.928 158.948,34.29 158.928,34.704C158.909,35.119 158.88,35.543 158.841,35.976C158.801,36.408 158.762,36.834 158.725,37.248C158.686,37.661 158.639,38.013 158.581,38.302L136.119,38.302C136.099,38.573 136.085,38.833 136.075,39.082C136.065,39.334 136.06,39.593 136.06,39.862C136.06,41.462 136.293,42.824 136.755,43.952C137.217,45.08 137.819,45.999 138.562,46.714C139.303,47.428 140.137,47.942 141.062,48.26C141.987,48.577 142.922,48.737 143.866,48.737C145.927,48.737 147.586,48.379 148.839,47.668C150.091,46.956 151.045,45.992 151.7,44.777L156.991,44.777C156.663,45.973 156.123,47.09 155.372,48.13C154.621,49.169 153.672,50.072 152.524,50.833C151.378,51.594 150.047,52.193 148.535,52.626C147.023,53.059 145.36,53.277 143.551,53.277Z" style="fill:white;fill-rule:nonzero;"/>
        <path d="M174.732,48.795C176.351,48.795 177.848,48.416 179.228,47.653C180.605,46.893 181.806,45.851 182.826,44.531C183.848,43.211 184.648,41.66 185.225,39.877C185.802,38.094 186.093,36.172 186.093,34.11C186.093,32.778 185.911,31.585 185.544,30.524C185.176,29.465 184.656,28.562 183.983,27.82C183.308,27.079 182.489,26.505 181.525,26.101C180.561,25.695 179.472,25.494 178.257,25.494C176.657,25.494 175.173,25.852 173.805,26.563C172.435,27.278 171.252,28.268 170.249,29.54C169.246,30.812 168.456,32.331 167.879,34.092C167.301,35.853 167.01,37.788 167.01,39.889C167.01,41.2 167.198,42.404 167.575,43.502C167.952,44.601 168.475,45.539 169.15,46.32C169.825,47.1 170.635,47.707 171.579,48.142C172.523,48.577 173.575,48.795 174.732,48.795ZM173.142,53.277C171.582,53.277 170.117,52.983 168.747,52.394C167.377,51.807 166.178,50.962 165.148,49.864C164.116,48.766 163.301,47.436 162.705,45.875C162.108,44.315 161.809,42.57 161.809,40.643C161.809,38.774 161.998,36.986 162.373,35.281C162.749,33.576 163.282,31.996 163.977,30.541C164.672,29.085 165.504,27.769 166.476,26.595C167.45,25.419 168.529,24.418 169.716,23.589C170.902,22.76 172.181,22.124 173.56,21.681C174.937,21.238 176.379,21.016 177.883,21.016C179.001,21.016 180.064,21.17 181.077,21.478C182.09,21.786 183.005,22.214 183.824,22.765C184.643,23.315 185.345,23.978 185.935,24.758C186.522,25.538 186.953,26.392 187.221,27.317L187.684,27.317L191.529,9.189L196.588,9.189L187.337,52.729L182.538,52.729L183.432,48.48L182.97,48.48C181.833,49.964 180.407,51.134 178.692,51.992C176.977,52.846 175.126,53.277 173.142,53.277Z" style="fill:white;fill-rule:nonzero;"/>
        <path d="M241.964,21.654L230.68,21.654L218.372,36.893L217.765,36.893L211.257,21.654L199.843,21.654L209.628,43.788L188.506,68.809L199.637,68.809L213.194,52.736L214.108,52.736L221.431,68.809L232.633,68.809L221.801,44.897L241.964,21.654Z" style="fill:white;fill-rule:nonzero;"/>
        <path d="M28.508,20.825C23.602,20.825 19.29,24.637 18.181,31.504C17.059,38.126 19.966,41.641 24.589,41.641C29.495,41.641 33.78,37.856 34.902,30.989C36.01,24.366 33.145,20.825 28.508,20.825ZM24.453,45.453C17.14,45.453 12.627,39.965 14.113,30.989C15.573,22.257 21.601,17.012 28.684,17.012C35.944,17.012 40.457,22.514 38.97,31.504C37.497,40.236 31.496,45.453 24.453,45.453Z" style="fill:white;fill-rule:nonzero;"/>
        <path d="M53.215,31.8C57.296,31.8 59.392,29.476 59.891,26.354C60.406,23.203 59.108,20.974 54.986,20.974L49.74,20.974L47.943,31.8L53.215,31.8ZM46.145,17.391L56.013,17.391C62.432,17.391 64.947,21.244 64.109,26.354C63.257,31.449 59.446,35.341 53.025,35.341L47.348,35.341L45.727,45.074L41.549,45.074L46.145,17.391Z" style="fill:white;fill-rule:nonzero;"/>
        <path d="M70.074,17.391L87.569,17.391L86.815,20.987L73.656,20.987L72.252,29.422L83.688,29.422L82.957,33.004L71.656,33.004L70.25,41.478L82.99,41.478L82.231,45.074L65.478,45.074L70.074,17.391Z" style="fill:white;fill-rule:nonzero;"/>
        <path d="M110.416,45.074L106.576,45.074L96.632,24.771L96.39,24.771L92.248,45.074L88.071,45.074L93.915,17.391L97.782,17.391L107.645,37.72L107.903,37.72L112.124,17.391L116.259,17.391L110.416,45.074Z" style="fill:white;fill-rule:nonzero;"/>
        <path d="M260.023,17.46L260.944,19.174L260.224,19.174L259.329,17.46L260.023,17.46ZM257.876,19.174L257.876,15.486L259.644,15.486C259.831,15.486 260.01,15.53 260.186,15.618C260.362,15.707 260.506,15.837 260.621,16.008C260.736,16.18 260.794,16.391 260.794,16.64C260.794,16.89 260.734,17.106 260.616,17.288C260.497,17.469 260.347,17.608 260.167,17.705C259.984,17.801 259.798,17.85 259.604,17.85L258.234,17.85L258.234,17.345L259.433,17.345C259.604,17.345 259.756,17.284 259.89,17.163C260.027,17.041 260.094,16.867 260.094,16.64C260.094,16.407 260.027,16.241 259.89,16.141C259.756,16.041 259.609,15.991 259.45,15.991L258.519,15.991L258.519,19.174L257.876,19.174ZM259.229,20.628C259.829,20.628 260.375,20.482 260.867,20.189C261.358,19.895 261.75,19.503 262.044,19.011C262.337,18.52 262.483,17.975 262.483,17.375C262.483,16.775 262.337,16.23 262.044,15.738C261.75,15.247 261.358,14.855 260.867,14.562C260.375,14.268 259.829,14.122 259.229,14.122C258.631,14.122 258.084,14.268 257.592,14.562C257.101,14.855 256.709,15.247 256.415,15.738C256.124,16.23 255.976,16.775 255.976,17.375C255.976,17.975 256.124,18.52 256.415,19.011C256.709,19.503 257.101,19.895 257.592,20.189C258.084,20.482 258.631,20.628 259.229,20.628ZM259.229,21.373C258.676,21.373 258.159,21.27 257.676,21.063C257.191,20.857 256.767,20.57 256.401,20.203C256.035,19.837 255.748,19.412 255.542,18.929C255.336,18.446 255.232,17.928 255.232,17.375C255.232,16.822 255.336,16.304 255.542,15.821C255.748,15.338 256.035,14.913 256.401,14.547C256.767,14.18 257.191,13.894 257.676,13.687C258.159,13.481 258.676,13.377 259.229,13.377C259.782,13.377 260.301,13.481 260.784,13.687C261.267,13.894 261.691,14.18 262.058,14.547C262.425,14.913 262.712,15.338 262.918,15.821C263.124,16.304 263.227,16.822 263.227,17.375C263.227,17.928 263.124,18.446 262.918,18.929C262.712,19.412 262.425,19.837 262.058,20.203C261.691,20.57 261.267,20.857 260.784,21.063C260.301,21.27 259.782,21.373 259.229,21.373Z" style="fill:rgb(5,38,42);fill-rule:nonzero;"/>
    </g>
</svg>
